<?xml version="1.0" encoding="iso-8859-1"?>
<!-- Generator: Adobe Illustrator 18.0.0, SVG Export Plug-In . SVG Version: 6.00 Build 0)  -->
<!DOCTYPE svg PUBLIC "-//W3C//DTD SVG 1.1//EN" "http://www.w3.org/Graphics/SVG/1.1/DTD/svg11.dtd">
<svg version="1.1" id="Capa_1" xmlns="http://www.w3.org/2000/svg" xmlns:xlink="http://www.w3.org/1999/xlink" x="0px" y="0px"
	 viewBox="0 0 264.891 264.891" style="enable-background:new 0 0 264.891 264.891;" xml:space="preserve">
<g id="CHURCH">
	<g>
		<path style="fill:#F8840E;" d="M116.266,133.172h-8.321c-1.417,0-2.568,1.15-2.568,2.568v20.182c0,1.416,1.15,2.568,2.568,2.568
			h8.321c1.418,0,2.568-1.152,2.568-2.568V135.74C118.834,134.322,117.684,133.172,116.266,133.172z M116.831,154
			c0,1.145-0.812,2.08-1.809,2.08h-5.84c-0.997,0-1.803-0.935-1.803-2.08v-16.34c0-1.145,0.806-2.074,1.803-2.074h5.84
			c0.997,0,1.809,0.93,1.809,2.074V154z"/>
		<path style="fill:#F8840E;" d="M156.951,133.172h-8.32c-1.418,0-2.568,1.15-2.568,2.568v20.182c0,1.416,1.15,2.568,2.568,2.568
			h8.32c1.417,0,2.568-1.152,2.568-2.568V135.74C159.52,134.322,158.369,133.172,156.951,133.172z M157.511,154
			c0,1.145-0.807,2.08-1.803,2.08h-5.84c-0.997,0-1.803-0.935-1.803-2.08v-16.34c0-1.145,0.806-2.074,1.803-2.074h5.84
			c0.996,0,1.803,0.93,1.803,2.074V154z"/>
		<path style="fill:#F8840E;" d="M139.919,94.053c-2.28-2.281-5.434-3.693-8.922-3.693c-6.965,0-12.61,5.65-12.61,12.615v11.371
			h2.815v-11.463c0-5.408,4.386-9.795,9.795-9.795c2.707,0,5.157,1.098,6.929,2.871c1.777,1.771,2.872,4.217,2.872,6.924v11.463
			h2.815v-11.371C143.612,99.492,142.2,96.338,139.919,94.053z"/>
		<path style="fill:#6DD47E;" d="M115.022,135.586h-5.84c-0.997,0-1.803,0.93-1.803,2.074V154c0,1.145,0.806,2.08,1.803,2.08h5.84
			c0.997,0,1.809-0.935,1.809-2.08v-16.34C116.831,136.516,116.02,135.586,115.022,135.586z"/>
		<path style="fill:#6DD47E;" d="M155.709,135.586h-5.84c-0.997,0-1.803,0.93-1.803,2.074V154c0,1.145,0.806,2.08,1.803,2.08h5.84
			c0.996,0,1.803-0.935,1.803-2.08v-16.34C157.511,136.516,156.705,135.586,155.709,135.586z"/>
		<path style="fill:#6DD47E;" d="M137.926,95.959c-1.772-1.773-4.222-2.871-6.929-2.871c-5.409,0-9.795,4.387-9.795,9.795v11.463
			h19.596v-11.463C140.797,100.176,139.703,97.73,137.926,95.959z"/>
		<path style="fill:#FAA229;" d="M65.225,206.334h1.572c1.417,0,2.568-1.15,2.568-2.566v-13.895h-6.708v13.895
			C62.657,205.184,63.807,206.334,65.225,206.334z"/>
		<path style="fill:#FAA229;" d="M131.665,206.334h1.567c1.418,0,2.568-1.15,2.568-2.566v-13.895h-6.704v13.895
			C129.096,205.184,130.247,206.334,131.665,206.334z"/>
		<path style="fill:#FAA229;" d="M198.099,206.334h1.567c1.417,0,2.568-1.15,2.568-2.566v-13.895h-6.703v13.895
			C195.531,205.184,196.681,206.334,198.099,206.334z"/>
		<path style="fill:#D9EEEC;" d="M98.643,197.604c-19.853,0-26.242,30.932-28.302,50.85h57.575
			C125.476,228.535,118.495,197.604,98.643,197.604z"/>
		<path style="fill:#D9EEEC;" d="M164.969,197.604c-19.852,0-26.242,30.932-28.301,50.85h57.569
			C191.802,228.535,184.821,197.604,164.969,197.604z"/>
		<path style="fill:#EAFFEA;" d="M202.234,203.768c0,1.416-1.15,2.566-2.568,2.566h-1.567c-1.418,0-2.568-1.15-2.568-2.566v-13.895
			H135.8v13.895c0,1.416-1.151,2.566-2.568,2.566h-1.567c-1.417,0-2.568-1.15-2.568-2.566v-13.895H69.365v13.895
			c0,1.416-1.151,2.566-2.568,2.566h-1.572c-1.418,0-2.568-1.15-2.568-2.566v-13.895h-2.892v75.018h9.6c0,0,0-6.977,0.976-16.437
			c2.06-19.918,8.449-50.85,28.302-50.85c19.852,0,26.833,30.932,29.273,50.85c1.156,9.461,1.289,16.437,1.289,16.437h6.487
			c0,0,0-6.977,0.976-16.437c2.059-19.918,8.449-50.85,28.301-50.85c19.853,0,26.833,30.932,29.268,50.85
			c1.161,9.461,1.294,16.437,1.294,16.437h9.595v-75.018h-2.892V203.768z"/>
		<path style="fill:#EAFFEA;" d="M180.009,123.443H84.887v43.217h95.122V123.443z M118.834,155.922c0,1.416-1.15,2.568-2.568,2.568
			h-8.321c-1.417,0-2.568-1.152-2.568-2.568V135.74c0-1.418,1.15-2.568,2.568-2.568h8.321c1.418,0,2.568,1.15,2.568,2.568V155.922z
			 M159.52,155.922c0,1.416-1.151,2.568-2.568,2.568h-8.32c-1.418,0-2.568-1.152-2.568-2.568V135.74c0-1.418,1.15-2.568,2.568-2.568
			h8.32c1.417,0,2.568,1.15,2.568,2.568V155.922z"/>
		<path style="fill:#EAFFEA;" d="M118.387,102.975c0-6.965,5.645-12.615,12.61-12.615c3.487,0,6.642,1.412,8.922,3.693
			c2.281,2.285,3.693,5.439,3.693,8.922v11.371h24.346V81.264H95.997v33.082h22.39V102.975z"/>
		<path style="fill:#F8840E;" d="M135.548,34.178c-1.176-0.113-2.368-0.17-3.57-0.17c-1.947,0-3.863,0.145-5.732,0.432
			c-18.353,2.758-32.427,18.598-32.427,37.727h76.312C170.131,52.293,154.943,35.975,135.548,34.178z"/>
		<polygon style="fill:#F21073;" points="204.129,166.66 180.009,166.66 84.887,166.66 60.767,166.66 53.457,189.873 
			59.765,189.873 62.657,189.873 69.365,189.873 129.096,189.873 135.8,189.873 195.531,189.873 202.234,189.873 205.126,189.873 
			211.434,189.873 		"/>
		<polygon style="fill:#F21073;" points="187.539,123.443 182.403,114.346 167.959,114.346 143.612,114.346 140.797,114.346 
			121.202,114.346 118.387,114.346 95.997,114.346 81.554,114.346 76.412,123.443 84.887,123.443 180.009,123.443 		"/>
		<polygon style="fill:#F21073;" points="182.403,81.264 177.261,72.166 170.131,72.166 93.819,72.166 86.69,72.166 81.554,81.264 
			95.997,81.264 167.959,81.264 		"/>
		<path style="fill:#630F35;" d="M135.548,34.178V17.74h8.439c0.283,0,0.514-0.23,0.514-0.514V8.947
			c0-0.283-0.231-0.514-0.514-0.514h-8.439v-7.92c0-0.283-0.231-0.514-0.514-0.514h-8.275c-0.288,0-0.514,0.23-0.514,0.514v7.92
			h-8.44c-0.283,0-0.514,0.23-0.514,0.514v8.279c0,0.283,0.231,0.514,0.514,0.514h8.44v16.699c1.869-0.287,3.785-0.432,5.732-0.432
			C133.18,34.008,134.372,34.064,135.548,34.178z"/>
	</g>
	<g>
		<path style="fill:#E47A0D;" d="M156.951,133.172h-1.706c0.072,0.804,0.134,1.609,0.197,2.414h0.267
			c0.996,0,1.803,0.93,1.803,2.074V154c0,0.963-0.573,1.77-1.347,2.005c-0.004,0.828-0.017,1.657-0.029,2.485h0.816
			c1.417,0,2.568-1.152,2.568-2.568V135.74C159.52,134.322,158.369,133.172,156.951,133.172z"/>
		<path style="fill:#63C072;" d="M157.511,154v-16.34c0-1.145-0.807-2.074-1.803-2.074h-0.267
			c0.531,6.791,0.757,13.607,0.722,20.419C156.938,155.77,157.511,154.963,157.511,154z"/>
		<path style="fill:#E69525;" d="M198.099,206.334h1.567c1.417,0,2.568-1.15,2.568-2.566v-13.895h-6.703v13.895
			C195.531,205.184,196.681,206.334,198.099,206.334z"/>
		<path style="fill:#C7DAD8;" d="M164.969,197.604c-4.525,0-8.344,1.62-11.579,4.338c-0.287,15.677,1.682,31.137,3.256,46.512h37.59
			C191.802,228.535,184.821,197.604,164.969,197.604z"/>
		<path style="fill:#D8EBD7;" d="M202.234,189.873v13.895c0,1.416-1.15,2.566-2.568,2.566h-1.567c-1.418,0-2.568-1.15-2.568-2.566
			v-13.895h-41.434c-0.414,4.038-0.634,8.061-0.707,12.068c3.234-2.718,7.053-4.338,11.579-4.338
			c19.853,0,26.833,30.932,29.268,50.85c1.161,9.461,1.294,16.437,1.294,16.437h9.595v-75.018H202.234z"/>
		<path style="fill:#D8EBD7;" d="M180.009,123.443h-25.866c0.443,3.233,0.812,6.478,1.102,9.729h1.706
			c1.417,0,2.568,1.15,2.568,2.568v20.182c0,1.416-1.151,2.568-2.568,2.568h-0.816c-0.038,2.726-0.115,5.45-0.229,8.17h24.103
			V123.443z"/>
		<path style="fill:#D8EBD7;" d="M167.959,81.264h-24.967c4.456,10.75,7.599,21.829,9.692,33.082h15.275V81.264z"/>
		<path style="fill:#E47A0D;" d="M135.548,34.178c-1.176-0.113-2.368-0.17-3.57-0.17c-0.509,0-1.01,0.037-1.515,0.057
			c-0.462,11.738,0.573,23.104,6.013,33.491c0.826,1.527,1.609,3.066,2.374,4.61h31.28
			C170.131,52.293,154.943,35.975,135.548,34.178z"/>
		<path style="fill:#DE0F6A;" d="M204.129,166.66h-24.12h-24.103c-0.279,6.665-0.771,13.308-1.43,19.895
			c-0.143,1.107-0.267,2.213-0.379,3.317h41.434h6.703h2.892h6.308L204.129,166.66z"/>
		<path style="fill:#DE0F6A;" d="M187.539,123.443l-5.136-9.098h-14.444h-15.275c0.562,3.021,1.044,6.055,1.46,9.098h25.866H187.539
			z"/>
		<path style="fill:#DE0F6A;" d="M182.403,81.264l-5.142-9.098h-7.129h-31.28c1.489,3.004,2.871,6.036,4.14,9.098h24.967H182.403z"
			/>
		<path style="fill:#521230;" d="M135.548,34.178V17.74h8.439c0.283,0,0.514-0.23,0.514-0.514V8.947
			c0-0.283-0.231-0.514-0.514-0.514h-8.439v-7.92c0-0.283-0.231-0.514-0.514-0.514h-1.68c-0.65,11.345-2.45,22.874-2.891,34.064
			c0.505-0.02,1.005-0.057,1.515-0.057C133.18,34.008,134.372,34.064,135.548,34.178z"/>
	</g>
</g>
<g>
</g>
<g>
</g>
<g>
</g>
<g>
</g>
<g>
</g>
<g>
</g>
<g>
</g>
<g>
</g>
<g>
</g>
<g>
</g>
<g>
</g>
<g>
</g>
<g>
</g>
<g>
</g>
<g>
</g>
</svg>
